<?xml version="1.0" encoding="utf-8"?>
<!-- Generator: Adobe Illustrator 26.2.1, SVG Export Plug-In . SVG Version: 6.00 Build 0)  -->
<svg version="1.1" id="a" xmlns="http://www.w3.org/2000/svg" xmlns:xlink="http://www.w3.org/1999/xlink" x="0px" y="0px"
	 viewBox="0 0 501.2 440.2" style="enable-background:new 0 0 501.2 440.2;" xml:space="preserve">
<style type="text/css">
	.st0{fill:#FFFFFF;stroke:#000000;stroke-width:20;stroke-miterlimit:10;}
	.st1{stroke:#000000;stroke-width:20;stroke-miterlimit:10;}
	.st2{fill:none;stroke:#FFFFFF;stroke-width:10;stroke-linecap:round;stroke-miterlimit:10;}
	.st3{fill:none;stroke:#000000;stroke-width:20;stroke-linecap:round;stroke-miterlimit:10;}
</style>
<path class="st0" d="M10,113.4c0-14.1,4.8-27.8,13.8-38.7C44.7,49.2,93.2,10,192.8,10c79.1,0,126,24.7,152.4,47.7
	c19.4,16.8,30.4,41.3,30.4,67V307c0,34-16.6,66-44.7,85.2c-28.7,19.6-73.1,38.1-138.1,38.1c-71.5,0-118-22.8-146.2-44.7
	c-23.2-18-36.6-45.9-36.6-75.2V113.4L10,113.4z"/>
<ellipse class="st1" cx="195.6" cy="113.7" rx="124.2" ry="54.6"/>
<path class="st2" d="M211.2,68.3c64.3,1.7,95.8,25.6,100.3,41.3"/>
<path class="st0" d="M380.9,175.3c0.6,5,4.7,8.9,9.8,9.3c14.6,1,42.7,6.1,42.7,30.1S407,242.4,392.1,243
	c-5.8,0.3-10.6,4.7-11.3,10.5l-3.5,27.4c-0.9,7,4.4,13.3,11.5,13.5c30.3,1.1,102.5-4.1,102.5-79.9s-74.5-82.4-103.9-81.6
	c-6.3,0.2-11.1,5.7-10.3,12L380.9,175.3L380.9,175.3z"/>
<path class="st3" d="M61,249.3l0.2,49.8c0,14.7,1.3,26.1,12.2,36c9.1,8.3,15.5,15.2,35.8,21"/>
</svg>
