<svg id="visual" viewBox="0 0 960 300" width="960" height="300" xmlns="http://www.w3.org/2000/svg" xmlns:xlink="http://www.w3.org/1999/xlink" version="1.1"><rect x="0" y="0" width="960" height="300" fill="#ab8f87"></rect><path d="M0 77L22.8 79.7C45.7 82.3 91.3 87.7 137 86.7C182.7 85.7 228.3 78.3 274 80.2C319.7 82 365.3 93 411.2 96.5C457 100 503 96 548.8 91.7C594.7 87.3 640.3 82.7 686 79.3C731.7 76 777.3 74 823 69.5C868.7 65 914.3 58 937.2 54.5L960 51L960 301L937.2 301C914.3 301 868.7 301 823 301C777.3 301 731.7 301 686 301C640.3 301 594.7 301 548.8 301C503 301 457 301 411.2 301C365.3 301 319.7 301 274 301C228.3 301 182.7 301 137 301C91.3 301 45.7 301 22.8 301L0 301Z" fill="#947a73"></path><path d="M0 114L22.8 119.7C45.7 125.3 91.3 136.7 137 141.8C182.7 147 228.3 146 274 145.3C319.7 144.7 365.3 144.3 411.2 145.2C457 146 503 148 548.8 142.2C594.7 136.3 640.3 122.7 686 118.3C731.7 114 777.3 119 823 121.7C868.7 124.3 914.3 124.7 937.2 124.8L960 125L960 301L937.2 301C914.3 301 868.7 301 823 301C777.3 301 731.7 301 686 301C640.3 301 594.7 301 548.8 301C503 301 457 301 411.2 301C365.3 301 319.7 301 274 301C228.3 301 182.7 301 137 301C91.3 301 45.7 301 22.8 301L0 301Z" fill="#8d736c"></path><path d="M0 161L22.8 158.5C45.7 156 91.3 151 137 159.2C182.7 167.3 228.3 188.7 274 193.3C319.7 198 365.3 186 411.2 175.2C457 164.3 503 154.7 548.8 157.8C594.7 161 640.3 177 686 180.8C731.7 184.7 777.3 176.3 823 173.7C868.7 171 914.3 174 937.2 175.5L960 177L960 301L937.2 301C914.3 301 868.7 301 823 301C777.3 301 731.7 301 686 301C640.3 301 594.7 301 548.8 301C503 301 457 301 411.2 301C365.3 301 319.7 301 274 301C228.3 301 182.7 301 137 301C91.3 301 45.7 301 22.8 301L0 301Z" fill="#866d66"></path><path d="M0 190L22.8 193.8C45.7 197.7 91.3 205.3 137 204.7C182.7 204 228.3 195 274 198.2C319.7 201.3 365.3 216.7 411.2 224.5C457 232.3 503 232.7 548.8 233.8C594.7 235 640.3 237 686 229.2C731.7 221.3 777.3 203.7 823 194.7C868.7 185.7 914.3 185.3 937.2 185.2L960 185L960 301L937.2 301C914.3 301 868.7 301 823 301C777.3 301 731.7 301 686 301C640.3 301 594.7 301 548.8 301C503 301 457 301 411.2 301C365.3 301 319.7 301 274 301C228.3 301 182.7 301 137 301C91.3 301 45.7 301 22.8 301L0 301Z" fill="#7f6660"></path><path d="M0 267L22.8 267C45.7 267 91.3 267 137 263.3C182.7 259.7 228.3 252.3 274 246.7C319.7 241 365.3 237 411.2 241.3C457 245.7 503 258.3 548.8 263.2C594.7 268 640.3 265 686 257.2C731.7 249.3 777.3 236.7 823 236.8C868.7 237 914.3 250 937.2 256.5L960 263L960 301L937.2 301C914.3 301 868.7 301 823 301C777.3 301 731.7 301 686 301C640.3 301 594.7 301 548.8 301C503 301 457 301 411.2 301C365.3 301 319.7 301 274 301C228.3 301 182.7 301 137 301C91.3 301 45.7 301 22.8 301L0 301Z" fill="#78605a"></path></svg>